<svg width="32" height="32" viewBox="0 0 32 32" fill="none" xmlns="http://www.w3.org/2000/svg">
<g clip-path="url(#clip0_23_3003)">
<path fill-rule="evenodd" clip-rule="evenodd" d="M9.76486 0C9.54053 0.000182831 9.32121 0.066384 9.13424 0.190352C8.94727 0.314321 8.80092 0.490573 8.71343 0.697143L3.57057 12.8343L3.566 12.8457C3.42374 13.192 3.36871 13.5679 3.40575 13.9404C3.44278 14.313 3.57076 14.6707 3.77842 14.9822C3.98608 15.2937 4.26707 15.5494 4.5967 15.7269C4.92633 15.9043 5.2945 15.9981 5.66886 16H10.5351L6.37972 30.544C6.31085 30.785 6.32313 31.042 6.41465 31.2753C6.50618 31.5087 6.67189 31.7055 6.88625 31.8354C7.10061 31.9653 7.35173 32.0211 7.60095 31.9943C7.85016 31.9675 8.08364 31.8594 8.26543 31.6869L27.8997 13.0811L27.9066 13.0743C28.2326 12.7601 28.458 12.3562 28.5542 11.9137C28.6503 11.4712 28.6129 11.0102 28.4467 10.589C28.2804 10.1679 27.9928 9.80557 27.6203 9.5481C27.2479 9.29063 26.8073 9.14959 26.3546 9.14286H19.6163L23.3557 1.65486C23.4429 1.48097 23.4842 1.28771 23.4758 1.09339C23.4673 0.899068 23.4095 0.71011 23.3076 0.544405C23.2058 0.378699 23.0633 0.241729 22.8937 0.146462C22.7242 0.0511954 22.5331 0.00078375 22.3386 0L9.76486 0Z" fill="#F2670A"/>
</g>
<defs>
<clipPath id="clip0_23_3003">
<rect width="32" height="32" fill="white"/>
</clipPath>
</defs>
</svg>
