<svg width="169" height="169" viewBox="0 0 169 169" fill="none" xmlns="http://www.w3.org/2000/svg">
<path d="M108.168 57.2263C101.354 64.0394 93.2233 72.8918 92.2251 84.4122C93.2233 95.9326 101.355 104.785 108.168 111.598C117.394 119.549 123.236 131.319 123.236 144.455C123.236 144.478 123.235 144.501 123.234 144.524H123.236V163.016H36.5234V144.524H36.5254C36.5254 144.501 36.5234 144.478 36.5234 144.455C36.5234 131.319 42.3655 119.549 51.5922 111.598C58.4053 104.785 66.5365 95.9326 67.5346 84.4122C66.5365 72.8918 58.405 64.0394 51.5922 57.2263C42.3655 49.2753 36.5234 37.5051 36.5234 24.3696V5.59875H123.236V24.3696C123.236 37.5051 117.394 49.2753 108.168 57.2263Z" fill="#F9E7C0"/>
<path d="M79.8778 141.11C83.1049 141.11 99.5095 158.964 99.5095 158.964H60.246C60.246 158.964 76.6506 141.11 79.8778 141.11ZM78.1449 117.403C77.8867 117.399 77.6305 117.447 77.3911 117.544C77.1516 117.64 76.9337 117.783 76.75 117.964C76.5663 118.146 76.4204 118.362 76.3209 118.6C76.2213 118.838 76.17 119.094 76.17 119.352C76.17 119.61 76.2213 119.866 76.3209 120.104C76.4204 120.342 76.5663 120.558 76.75 120.739C76.9337 120.921 77.1516 121.064 77.3911 121.16C77.6305 121.257 77.8867 121.304 78.1449 121.301C78.6574 121.294 79.1468 121.086 79.5069 120.721C79.867 120.356 80.0689 119.864 80.0689 119.352C80.0689 118.839 79.867 118.347 79.5069 117.982C79.1468 117.618 78.6574 117.409 78.1449 117.403ZM80.0943 124.334C79.8362 124.331 79.58 124.378 79.3405 124.475C79.1011 124.571 78.8832 124.714 78.6995 124.896C78.5157 125.077 78.3699 125.293 78.2703 125.531C78.1708 125.769 78.1195 126.025 78.1195 126.283C78.1195 126.541 78.1708 126.797 78.2703 127.035C78.3699 127.273 78.5157 127.489 78.6995 127.671C78.8832 127.852 79.1011 127.995 79.3405 128.091C79.58 128.188 79.8362 128.236 80.0943 128.232C80.6069 128.226 81.0962 128.017 81.4563 127.653C81.8164 127.288 82.0184 126.796 82.0184 126.283C82.0184 125.771 81.8164 125.279 81.4563 124.914C81.0962 124.549 80.6069 124.341 80.0943 124.334ZM75.3709 135.969C75.1128 135.966 74.8565 136.014 74.6171 136.11C74.3777 136.207 74.1598 136.35 73.976 136.531C73.7923 136.713 73.6465 136.929 73.5469 137.167C73.4473 137.405 73.3961 137.661 73.3961 137.919C73.3961 138.177 73.4473 138.432 73.5469 138.671C73.6465 138.909 73.7923 139.125 73.976 139.306C74.1598 139.487 74.3777 139.631 74.6171 139.727C74.8565 139.823 75.1128 139.871 75.3709 139.868C75.8835 139.861 76.3728 139.653 76.7329 139.288C77.093 138.923 77.295 138.431 77.295 137.919C77.295 137.406 77.093 136.914 76.7329 136.549C76.3728 136.184 75.8835 135.976 75.3709 135.969ZM81.167 108.517C80.9089 108.514 80.6527 108.562 80.4133 108.658C80.1738 108.755 79.9559 108.898 79.7722 109.079C79.5885 109.26 79.4426 109.476 79.3431 109.715C79.2435 109.953 79.1922 110.208 79.1922 110.466C79.1922 110.725 79.2435 110.98 79.3431 111.218C79.4426 111.457 79.5885 111.673 79.7722 111.854C79.9559 112.035 80.1738 112.178 80.4133 112.275C80.6527 112.371 80.9089 112.419 81.167 112.416C81.6796 112.409 82.169 112.201 82.5291 111.836C82.8892 111.471 83.0911 110.979 83.0911 110.466C83.0911 109.954 82.8892 109.462 82.5291 109.097C82.169 108.732 81.6796 108.524 81.167 108.517ZM47.6133 39.2552C47.6133 47.3474 56.7663 54.5989 62.4506 59.4973C66.6479 63.6946 73.8241 71.6372 73.8241 81.6082C73.8241 81.9423 73.84 82.2621 73.866 82.5724C74.077 90.7177 75.12 99.8015 77.7075 103.043C77.5 103.297 77.3599 103.599 77.3002 103.922C77.2405 104.244 77.2631 104.576 77.366 104.888C77.4689 105.199 77.6488 105.48 77.8888 105.703C78.1289 105.927 78.4215 106.086 78.7395 106.166C79.0575 106.247 79.3906 106.246 79.7081 106.163C80.0255 106.08 80.3169 105.919 80.5554 105.694C80.7939 105.469 80.9717 105.187 81.0724 104.875C81.1731 104.563 81.1934 104.23 81.1314 103.908C84.6055 101.771 85.8103 90.6705 85.9225 80.8923C86.5166 72.4743 93.2938 63.5084 97.3049 59.4973C102.989 54.5989 112.142 47.3478 112.142 39.2552C112.142 35.3184 47.6133 35.3184 47.6133 39.2552ZM82.1177 132.255C81.8596 132.252 81.6033 132.3 81.3639 132.396C81.1245 132.493 80.9066 132.636 80.7228 132.817C80.5391 132.999 80.3933 133.215 80.2937 133.453C80.1941 133.691 80.1429 133.947 80.1429 134.205C80.1429 134.463 80.1941 134.718 80.2937 134.957C80.3933 135.195 80.5391 135.411 80.7228 135.592C80.9066 135.773 81.1245 135.916 81.3639 136.013C81.6033 136.109 81.8596 136.157 82.1177 136.154C82.6303 136.147 83.1196 135.939 83.4797 135.574C83.8398 135.209 84.0417 134.717 84.0417 134.205C84.0417 133.692 83.8398 133.2 83.4797 132.835C83.1196 132.47 82.6303 132.262 82.1177 132.255Z" fill="#FFB636"/>
<path d="M123.235 10.4394H36.5216C33.848 10.4394 31.6807 8.27213 31.6807 5.59849C31.6807 2.92486 33.848 0.757568 36.5216 0.757568H123.235C125.908 0.757568 128.076 2.92486 128.076 5.59849C128.076 8.27213 125.908 10.4394 123.235 10.4394ZM128.076 163.016C128.076 160.343 125.908 158.176 123.235 158.176H36.5216C33.848 158.176 31.6807 160.343 31.6807 163.016C31.6807 165.69 33.848 167.857 36.5216 167.857H123.235C125.908 167.857 128.076 165.69 128.076 163.016Z" fill="#68442A"/>
<path d="M112.142 38.1016C112.142 41.0974 97.697 43.5261 79.8778 43.5261C62.0585 43.5261 47.6133 41.0974 47.6133 38.1016C47.6133 35.1058 62.0585 32.6771 79.8778 32.6771C97.697 32.6771 112.142 35.1058 112.142 38.1016Z" fill="#FFD469"/>
</svg>
