<svg width="54" height="62" viewBox="0 0 54 62" fill="none" xmlns="http://www.w3.org/2000/svg">
<path fill-rule="evenodd" clip-rule="evenodd" d="M0.792969 25.8129C0.792969 11.63 12.6449 0.166504 26.9811 0.166504C41.3577 0.166504 53.2096 11.63 53.2096 25.8129C53.2096 32.9599 50.6104 39.595 46.3323 45.2189C41.6126 51.4223 35.7954 56.8273 29.2476 61.0698C27.749 62.0503 26.3966 62.1243 24.7519 61.0698C18.1667 56.8273 12.3496 51.4223 7.67034 45.2189C3.38908 39.595 0.792969 32.9599 0.792969 25.8129ZM18.3475 26.6116C18.3475 31.3628 22.2246 35.0997 26.9784 35.0997C31.7354 35.0997 35.6498 31.3628 35.6498 26.6116C35.6498 21.8973 31.7354 17.9785 26.9784 17.9785C22.2246 17.9785 18.3475 21.8973 18.3475 26.6116Z" fill="#F2670A"/>
</svg>
