<svg width="28" height="32" viewBox="0 0 28 32" fill="none" xmlns="http://www.w3.org/2000/svg">
<path d="M11 0C9.89375 0 9 0.89375 9 2C9 3.10625 9.89375 4 11 4H12V6.15C5.76875 7.1125 1 12.5 1 19C1 26.1813 6.81875 32 14 32C21.1813 32 27 26.1813 27 19C27 16.3875 26.2313 13.9563 24.9062 11.925L26.4125 10.4187C27.1938 9.6375 27.1938 8.36875 26.4125 7.5875C25.6313 6.80625 24.3625 6.80625 23.5812 7.5875L22.2313 8.9375C20.475 7.5 18.3438 6.5125 16 6.15V4H17C18.1063 4 19 3.10625 19 2C19 0.89375 18.1063 0 17 0H14H11ZM15.5 12V20C15.5 20.8313 14.8313 21.5 14 21.5C13.1687 21.5 12.5 20.8313 12.5 20V12C12.5 11.1687 13.1687 10.5 14 10.5C14.8313 10.5 15.5 11.1687 15.5 12Z" fill="#0D66B7"/>
</svg>
